/* XPM */
static char *result[] = {
/* columns rows colors chars-per-pixel */
"64 64 226 2 ",
"   c black",
".  c #060302",
"X  c #040402",
"o  c #050104",
"O  c #070707",
"+  c #0F0B07",
"@  c #0F050B",
"#  c gray3",
"$  c #0D0D09",
"%  c gray6",
"&  c #110C07",
"*  c #10040C",
"=  c #1B120B",
"-  c #1C170A",
";  c #1A130C",
":  c #1A140C",
">  c #1B0914",
",  c #101010",
"<  c #151610",
"1  c #1F1D17",
"2  c #1F1F17",
"3  c gray12",
"4  c #27190F",
"5  c #271A0F",
"6  c #250D1B",
"7  c #231911",
"8  c #2E2116",
"9  c #28261E",
"0  c #312113",
"q  c #37281B",
"w  c #37291B",
"e  c #3C2A18",
"r  c #3C2B18",
"t  c #311124",
"y  c #3B152C",
"u  c #272525",
"i  c #282828",
"p  c #2F2D2D",
"a  c #312E25",
"s  c #39372D",
"d  c gray19",
"f  c gray21",
"g  c #46311C",
"h  c #45321D",
"j  c #451B37",
"k  c #4F1F39",
"l  c #403422",
"z  c #483928",
"x  c #503A22",
"c  c #593D27",
"v  c #523F2E",
"b  c #59253C",
"n  c #413A35",
"m  c #423D3A",
"M  c #63293E",
"N  c #78323F",
"B  c #4B413B",
"V  c #4B433F",
"C  c #4D453F",
"Z  c #5B4333",
"A  c #5A4932",
"S  c #57493F",
"D  c #574D3F",
"F  c #64422C",
"G  c #6D4631",
"H  c #64443A",
"J  c #64473A",
"K  c #634E39",
"L  c #6F4D3D",
"P  c #794A35",
"I  c #7D4E3F",
"U  c #6E553C",
"Y  c #7D533F",
"T  c #7C5B3E",
"R  c #6D2F40",
"E  c #04465D",
"W  c #044D67",
"Q  c #055672",
"!  c #055F7E",
"~  c #584D44",
"^  c #5A5046",
"/  c #635143",
"(  c #635443",
")  c #615147",
"_  c #625348",
"`  c #6E5A4C",
"'  c #6F5D4D",
"]  c #705E4E",
"[  c #71614F",
"{  c #786150",
"}  c #786350",
"|  c #8F393F",
" . c #844C38",
".. c #924F3A",
"X. c #92533A",
"o. c #A14F39",
"O. c #B15039",
"+. c #BF5239",
"@. c #833742",
"#. c #9E3A41",
"$. c #AB3B45",
"%. c #BA3C4E",
"&. c #8A5340",
"*. c #8A5740",
"=. c #995C41",
"-. c #886440",
";. c #89664D",
":. c #976E41",
">. c #976C4F",
",. c #856853",
"<. c #856953",
"1. c #916D55",
"2. c #917155",
"3. c #9D7157",
"4. c #9D7459",
"5. c #9E7B58",
"6. c #A76241",
"7. c #B76B41",
"8. c #A67A40",
"9. c #A5755B",
"0. c #A37A61",
"q. c #C44257",
"w. c #C86040",
"e. c #CC6F4A",
"r. c #D27E54",
"t. c #C94B65",
"y. c #D05477",
"u. c #B58B41",
"i. c #9B8065",
"p. c #A38363",
"a. c #A68B6E",
"s. c #AB8975",
"d. c #A9947B",
"f. c #A9957B",
"g. c #A9997B",
"h. c #C09644",
"j. c #C68550",
"k. c #D88E5C",
"l. c #CA925C",
"z. c #C5A54F",
"x. c #CAAE58",
"c. c #CD9E67",
"v. c #DE9C66",
"b. c #CDB665",
"n. c #D2BE6E",
"m. c #D9B179",
"M. c #E2A870",
"N. c #D7C779",
"B. c #066687",
"V. c #066E93",
"C. c #07779E",
"Z. c #077EA8",
"A. c #D65C84",
"S. c #DC6695",
"D. c #E0709F",
"F. c #E47CAB",
"G. c #0886B1",
"H. c #088BB9",
"J. c #0891C1",
"K. c #0895C7",
"L. c #099ACC",
"P. c #099ED2",
"I. c #09A2D8",
"U. c #0AA8DF",
"Y. c #0AACE5",
"T. c #0AB1EB",
"R. c #0AB5F1",
"E. c #0FB9F4",
"W. c #17BBF4",
"Q. c #1FBDF4",
"!. c #24BFF5",
"~. c #2AC0F5",
"^. c #32C3F5",
"/. c #37C4F6",
"(. c #AD9383",
"). c #AB9C87",
"_. c #B1A591",
"`. c #B8A496",
"'. c #B3A699",
"]. c #B7AC99",
"[. c #BDB5A3",
"{. c #BCB1A4",
"}. c #E8BC88",
"|. c #E688B2",
" X c #E995BB",
".X c #C3BCAB",
"XX c #D1BFA3",
"oX c #DCCC82",
"OX c #E0D38E",
"+X c #E0C190",
"@X c #EAC596",
"#X c #E3D999",
"$X c #CBC4B3",
"%X c #D2CCBC",
"&X c #EDCFA1",
"*X c #E7D1A7",
"=X c #E7DDA5",
"-X c #F0D8AE",
";X c #EBD8B3",
":X c #F2DCBA",
">X c #EAE1B0",
",X c #EDE5BD",
"<X c #ECA0C4",
"1X c #EEAEC8",
"2X c #F1B9C9",
"3X c #D9D4C5",
"4X c #E1DCCD",
"5X c #F9CFD0",
"6X c #F6E2C6",
"7X c #F2EAC6",
"8X c #E9E4D5",
"9X c #F9EAD1",
"0X c #F1EBDD",
"qX c #F1ECDD",
"wX c #F7F0D1",
"eX c #FBF6DB",
"rX c #FEF2DC",
"tX c #F8F2E4",
"yX c #FFFBE7",
"uX c #FFFAEB",
"iX c #FFFBED",
"pX c #FFFFF5",
"aX c #FFFFF9",
"sX c #FFFFFD",
"dX c white",
"fX c None",
/* pixels */
"fXfXfXfXfXfXfXfXfXfXfXfXfXfXfXfXfXfXfXfXfXfXfXfXfXfXfXfXfXfXfXfXfXfXfXfXfXfXfXfXfXfXfXfXfXfXfXfXfXfXfXfXfXfXfXfXfXfXfXfXfXfXfXfX",
"fXfXfXfXfXfXfXfXfXfXfXfXfXfXfXfXfXfXfXfXfXfXfXfXfXfXfXfXfXfXfXh O.fXfXfXfXfXfXfXfXfXfXfXfXfXfXfXfXfXfXfXfXfXfXfXfXfXfXfXfXfXfXfX",
"fXfXfXfXfXfXfXfX1 1 1 9 a a a fXfXfXfXfXfXfXfXfXfXfXfXfXfXfXG x c e fXfXfXfXfXfXfXfXfXfXfXfXfXfXfX1 a n n s 1 1 fXfXfXfXfXfXfXfX",
"fXfXfXfXfXfX1 1 a.5.a.a._.).<.1 1 fXfXfXfXfXfXfXfXfXfXfXx G h h h h e e fXfXfXfXfXfXfXfXfXfXfX9 s a.%X4X8XqXiXp.1 1 fXfXfXfXfXfX",
"fXfXfXfXfX1 5..XdXsX[..Xa.f.)._.<.1 fXfXfXfXfXfXfXfXfX .P c e 8 8 e e h e fXfXfXfXfXfXfXfXfXa a.3XdXtX$X).f.a.].).5.1 fXfXfXfXfX",
"fXfXfXfX9 _.3XiX3X<.<.<.5.f.2.5..X].1 fXfXfXfXfXfXc o. .x 8 l x.-.l 8 e x e e fXfXfXfXfXfXs 3XdX%X].[.).5.a.<.<.5.5.<.1 fXfXfXfX",
"fXfXfX1 )..XdX$X[.f.2.5.).2.<.<.<._.3XB ..G G w.o.F x c l x.wXT A :.b.z F P F e h F h x 1 p.$X8X8X.Xp.f.5.2.p.2.<.5.2.<.1 fXfXfX",
"fXfXfXa 3XiX[.tX].f.f.f.<.<.<.<.<.5.5.s x x c G G P L Z x.h.-.A A K A -.8 8 h h h e e e 1 qX4XtXdX3X8X).).5.5.p.2.5.5.<.1 fXfXfX",
"fXfX1 [.dX[.sX4X]._.2.<.p.<.<.1 1 1 g.<.1 e e 8 8 J :.7XOXu.b.A A 8.U -.z.T 8 8 8 e e 1 8XdX1 1 n p.p.3XqXp.<.<.a.5.a.5.<.1 fXfX",
"fXfX1 4XiX].tX$X$X5.<.<.a.<.1 1 1 1 n <.1 @.@.R #.o.,Xh.>XU OXA A h.A T u.:.e k R k b ;.dXs 1 1 1 1 2.f.$Xa.<.<.<.5.p.2.<.1 fXfX",
"fXfX1 _.sX3XtX[.].p.tXa.1 <.<.1 1 1 1 p.1 @.q.| | F...,X#XN.z.h.U 8.K u.A 5 > k | k M 1 dXn 1 n 9 $X$X>.tX5.<.2.<.<.<.2.<.1 fXfX",
"fXfX1 [.dXqX_.f.).$X].s 1 1 <.<.1 X } d.1 s @.M t.@.|.O.w.pXOX=XK :.z.c & t M N | N 9 S .Xf.1 1 ].sX9 s B 5.2.2.<.<.2.2.<.1 fXfX",
"fXfXfXa dX8X.X3X[.tX4Xs 1 1 1 <.f p f ` _ < 9 M b | M %.y.M.N.:.A h.e y y b R R @.B a sX%X).3X].8X1 9 1 1 _ 2._ <.<.5.` 1 fXfXfX",
"fXfXfX9 8X].%X4X_.3X8XS a 1 1 ~ _ 1 1   C } < b b b @.t.$.dXdX=XA U k t k b y N b n dX].1 1 s f.<.1 a 1 < C f f 2.` ` } 1 fXfXfX",
"fXfXfXfXn dX4X.X%XqX4X8XB 9 9 _ 1 <.1 1 ` C a 1 M #.| @.R <XdXdX8.x k b M M M N b >.tX5./ 1 <./ _.1 1 1 } ~ ~ ` m ` } X fXfXfXfX",
"fXfXfXfXfXs a.%X).{ {.dXqX4X0Xp.1 1 <.<.<.< <.< @.b R N #.F.dX#XU c k @.b k N N s qXS p.a.sXB n 3X<.<.<._   p m _ <.$ fXfXfXfXfX",
"fXfXfXfXfXZ n 1 4.m 5._ } ` m _ 1 1 <.$ _ f X $ * k $.b %.5X9Xb.A h j N M @.R R n S 2.<.9 p.9 1 ).C u   f f p `     + fXfXfXfXfX",
"fXfXfXfXfXZ x 8 9 i.( ' % ,.1.3.[.} 2 V   X   @ o M | R @.1X9XN.A c y > k %.@.M b R X < ~ < ).5.<.C C   m X       = 7 fXfXfXfXfX",
"fXfXfXfXfXv x 8 k k 1 d a.9.] ' s.^ 0.) 2     t j R b | q.t.aXOXA e k N b k #.R b b k 1 <.<.1 p.` O 3 f     @ @ ; e 7 fXfXfXfXfX",
"fXfXfXfXfXv P w M b b b XXn [ (.'.`.D # @   @ b k q.#.q.R 2XdX8.K x k 6 M b %.%.@.M k k 1 < ` ~ 3       >       #   8 fXfXfXfXfX",
"fXfXfXfXfXZ P l q.R N b M M 6 X   ,       6 R N M %.D.M t.dX#Xz.T A e k @.b k R | $.k k R 1 < a 1 y 6     @ y @ : x 8 fXfXfXfXfX",
"fXfXfXfXfXv h w y.N | N %.N j R y t N , M b b b $.@.M #.o.dX&Xz.K e -.e k k $.M N #.| %.| N R M j t > k 6 @ > 6 Z e w fXfXfXfXfX",
"fXfXfXfXfXY c l $.$.R x F #.| %.b N b R q.R N q.t.| %.e.wXrX,XoXK A x -.P k b R k b N R N R M N M @.N F 4 b M b l x z fXfXfXfXfX",
"fXfXfXfXfX7.x w N |.e z.U P ..N t.@.M k R N D.#.$.q.v.dX+./. .dX:.x R.h K G N k j b R $.@.A.%.N b P @XdX,Xh b t 8 c   fXfXfXfXfX",
"fXfXfXfXfXfXl ..w A.c dX>X-.8.P x t.$.| M @.D.#.t.:XyXM.~.P./.c P W R.U.P T e R M R M N N #.M r ..dXyXu.wXx t Z x z fXfXfXfXfXfX",
"fXfXfXfXfXfX*.F 8 y.G dXu.b.>XT 8.F e M @.@.R %.6XyXe.^.C.! L././.~.Z.J.J.P 8.e k M R k %.x ..wXeXz.:.U dXh k 8 c w fXfXfXfXfXfX",
"fXfXfXfXfXfXZ x 8 y.F dXu.b.u.n.b.b.u.G #.y.#.v.pXk.Q.C.! V.!.E.K./.L.! C.G. .K F b N | G ,XdXx.A A U N.N.h 6 8 c l fXfXfXfXfXfX",
"fXfXfXfXfXfX7.F z  XP eXh.dXh.:.u.A x.x $.S.F pXn.K o.V.Z.H.W.Z.W H.H.E E ..=Xo.:.c b k x dXK K A oX>XOXn.e b v  .8 fXfXfXfXfXfX",
"fXfXfXfXfXfXc.G l %.D.}.OXn.8.dXn.A u.x R q.1XdX9Xo.OXe.G.U.K.W ! Q H.E r.=Xw.e F @.b b P n.T dX>X:.K N. .M j l F + fXfXfXfXfXfX",
"fXfXfXfXfXfXfXZ x l |.F =X:.b.U -.T 8.e D.q.&XeXx.u.x h  .^.Q W V.E J.o. .P e b.u.h k M c OXU 8.-.U :.x.P t 8 G 8 fXfXfXfXfXfXfX",
"fXfXfXfXfXfXfX6.P 8 t.o.wX8.:.8.T -.-.e @.|.t.9XdXb.F U A e  .h e e w.dX7Xc -.-.e 6 | b c b.T -.U U h.-.0 M ; c 7 fXfXfXfXfXfXfX",
"fXfXfXfXfXfXfXm.x L @.q.:Xn.K z.:.:.h.F M t.%.M @XdXu.x h.uXdX=XU -.M.>XA F -.0 t M M b F b.U U :.u.-.e j y Z e   fXfXfXfXfXfXfX",
"fXfXfXfXfXfXfXfXz G w q.P dX:.T h.u.8.x k A.|.N b dXwXT c T G dXn.e x.N.x K h b 6 y b j e.u.T T :.A :.e t z h 7 fXfXfXfXfXfXfXfX",
"fXfXfXfXfXfXfXfX7.F l t.| aXh.>XdXb.b.x k #.5X<XN q.dXb.e h.P dX8.h A F T e k j j b j k r.U b.7X7Xx.h R R 7.x . fXfXfXfXfXfXfXfX",
"fXfXfXfXfXfXfXfX=.x Z b q.O.OXU #X,X-.8.e b $.$.R +.wXdXoX .h yXU h c -.e A 0 # b M t c n.-.#Xu.K OXe y j l x   fXfXfXfXfXfXfXfX",
"fXfXfXfXfXfXfXfXfX7.c l #.P yX:.T u.:.8.x N %.%.c dX,XdXdX=Xx 7XU e K h -.-.U  .| N t O.b.U -.8.x.u.0 k I F 8 fXfXfXfXfXfXfXfXfX",
"fXfXfXfXfXfXfXfXfXJ P v %.y.k.OXOXz.U -.x y.#.w.wXeXN.h.n.:Xx.-Xe A e h.T T T h.0 j j O.#X:.U U x.0 k #.J c 8 fXfXfXfXfXfXfXfXfX",
"fXfXfXfXfXfXfXfXfX=.w.Z $.S.P #XOX-.T K c q.S.o.OXOXu.h.h.OX}.c F x A A :.u.K z. .k N P N.:.U x.u.0 b i g e ; fXfXfXfXfXfXfXfXfX",
"fXfXfXfXfXfXfXfXfXfXL P Z R F...>XyX8.K x M ..>XdXoXx.T :.n.7XG e U -.A u.T 8.K n.h R G b.dXeXz.F M b ^ - 8 fXfXfXfXfXfXfXfXfXfX",
"fXfXfXfXfXfXfXfXfXfXL G Z y.@.G =XN.N.K x <Xk.N.dX:.:.h.oXeXdXdXOXb.u.K OXu.u.n.n.h j &X:.h.OXK 0 | | J e 7 fXfXfXfXfXfXfXfXfXfX",
"fXfXfXfXfXfXfXfXfXfXfXz c Y y.#.c yXx.A  .t.F #X7Xu.oXN.dXdX7XdXA T OX:.8.u.:.h.h.h > +.h.z.z.h N j Y c 8 fXfXfXfXfXfXfXfXfXfXfX",
"fXfXfXfXfXfXfXfXfXfXfXv c c.M $.| P dXK o.#.R }.=X-.7XdXrX..e.@X:XM.@XrXA T 8.7Xo.b y X.:.#Xe k M #.w e . fXfXfXfXfXfXfXfXfXfXfX",
"fXfXfXfXfXfXfXfXfXfXfXfXY F L @.q.#.k.#X..A.M o.dXdXdXP o.!.Y./.L.P.E r.v.A >X=Xe 6 t e.eXF b b t Y F + fXfXfXfXfXfXfXfXfXfXfXfX",
"fXfXfXfXfXfXfXfXfXfXfXfXl G z #.$.#.#.F x | | M :XdXv.e Q.L.H.H.I.B.Q E o.&XdXG j N | c G k b N #.w e   fXfXfXfXfXfXfXfXfXfXfXfX",
"fXfXfXfXfXfXfXfXfXfXfXfXfXv e.J N | @.N M %.q.#.A.rXrX/.~.P.L.H.J.! ! E ! M.dX6 @.| N k j t b j 6.x + fXfXfXfXfXfXfXfXfXfXfXfXfX",
"fXfXfXfXfXfXfXfXfXfXfXfXfXfXz P 8 q.q.@.$.t.y.A.S.:X/.L././.I.Z.V.! Q W W E o.q.@.y j N @ b y *.e w fXfXfXfXfXfXfXfXfXfXfXfXfXfX",
"fXfXfXfXfXfXfXfXfXfXfXfXfXfXZ c 7.Z %.q.| q.F.%.q.k.!.U.G./.W.K.B.W ! W W E w.#.> j t k j M &.l x . fXfXfXfXfXfXfXfXfXfXfXfXfXfX",
"fXfXfXfXfXfXfXfXfXfXfXfXfXfXfXv w.l.v #.$.|.R @.$.M.T.J.G.^.P.E ! Z.Q Q W E  .b y R b j k z J h 7 fXfXfXfXfXfXfXfXfXfXfXfXfXfXfX",
"fXfXfXfXfXfXfXfXfXfXfXfXfXfXfXfXZ e.Y J @.b k | *XdXe ^.U.J.Z.E W W P.E W e +.+Xy.b b @.q H x w fXfXfXfXfXfXfXfXfXfXfXfXfXfXfXfX",
"fXfXfXfXfXfXfXfXfXfXfXfXfXfXfXfXfXF O.*XdXL 7.c.;XyXP Q.Z.P.Z.W Q W H.E W e dXw J J 8 w z c 8 fXfXfXfXfXfXfXfXfXfXfXfXfXfXfXfXfX",
"fXfXfXfXfXfXfXfXfXfXfXfXfXfXfXfXfXfXz c =.dXoXn.n.z.x /.J.^./.8 8 G.! Q E P dX#Xn.,Xx.l e w fXfXfXfXfXfXfXfXfXfXfXfXfXfXfXfXfXfX",
"fXfXfXfXfXfXfXfXfXfXfXfXfXfXfXfXfXfXfXz h J z.U K K e e /.l m.-.:.Y w E e  .OX:.-.A 8 c z fXfXfXfXfXfXfXfXfXfXfXfXfXfXfXfXfXfXfX",
"fXfXfXfXfXfXfXfXfXfXfXfXfXfXfXfXfXfXfXfXZ h l T U >XU e 8 =XdX:.z.8.u.Z e #X7Xu.oX8 e 8 fXfXfXfXfXfXfXfXfXfXfXfXfXfXfXfXfXfXfXfX",
"fXfXfXfXfXfXfXfXfXfXfXfXfXfXfXfXfXfXfXfXfXz x 8 8 :.u.F OXwXdXK -.,X=X8.P eX:.w v e 8 fXfXfXfXfXfXfXfXfXfXfXfXfXfXfXfXfXfXfXfXfX",
"fXfXfXfXfXfXfXfXfXfXfXfXfXfXfXfXfXfXfXfXfXfXZ  .h 8 z j.#Xx -.z.:.A P :.L v 8 c c 8 fXfXfXfXfXfXfXfXfXfXfXfXfXfXfXfXfXfXfXfXfXfX",
"fXfXfXfXfXfXfXfXfXfXfXfXfXfXfXfXfXfXfXfXfXfXfXz J h e 8 N.8.U T T T T -.l e c z 8 fXfXfXfXfXfXfXfXfXfXfXfXfXfXfXfXfXfXfXfXfXfXfX",
"fXfXfXfXfXfXfXfXfXfXfXfXfXfXfXfXfXfXfXfXfXfXfXfXfXl v 8 P =XA wXwXn.u.c w z Z fXfXfXfXfXfXfXfXfXfXfXfXfXfXfXfXfXfXfXfXfXfXfXfXfX",
"fXfXfXfXfXfXfXfXfXfXfXfXfXfXfXfXfXfXfXfXfXfXfXfXfXfXfXv z OXx.Z Y 8.8.8 8 fXfXfXfXfXfXfXfXfXfXfXfXfXfXfXfXfXfXfXfXfXfXfXfXfXfXfX",
"fXfXfXfXfXfXfXfXfXfXfXfXfXfXfXfXfXfXfXfXfXfXfXfXfXfXfXfXw aX+X-.A 8 l 8 fXfXfXfXfXfXfXfXfXfXfXfXfXfXfXfXfXfXfXfXfXfXfXfXfXfXfXfX",
"fXfXfXfXfXfXfXfXfXfXfXfXfXfXfXfXfXfXfXfXfXfXfXfXfXfXfXfXw l b.z 8 U 8 8 fXfXfXfXfXfXfXfXfXfXfXfXfXfXfXfXfXfXfXfXfXfXfXfXfXfXfXfX",
"fXfXfXfXfXfXfXfXfXfXfXfXfXfXfXfXfXfXfXfXfXfXfXfXfXfXfXfXfX8 J h.N.l 8 fXfXfXfXfXfXfXfXfXfXfXfXfXfXfXfXfXfXfXfXfXfXfXfXfXfXfXfXfX",
"fXfXfXfXfXfXfXfXfXfXfXfXfXfXfXfXfXfXfXfXfXfXfXfXfXfXfXfXfXfX8 8 8 8 fXfXfXfXfXfXfXfXfXfXfXfXfXfXfXfXfXfXfXfXfXfXfXfXfXfXfXfXfXfX",
"fXfXfXfXfXfXfXfXfXfXfXfXfXfXfXfXfXfXfXfXfXfXfXfXfXfXfXfXfXfXfX8 8 fXfXfXfXfXfXfXfXfXfXfXfXfXfXfXfXfXfXfXfXfXfXfXfXfXfXfXfXfXfXfX",
"fXfXfXfXfXfXfXfXfXfXfXfXfXfXfXfXfXfXfXfXfXfXfXfXfXfXfXfXfXfXfXfXfXfXfXfXfXfXfXfXfXfXfXfXfXfXfXfXfXfXfXfXfXfXfXfXfXfXfXfXfXfXfXfX"
};
